<mxfile host="app.diagrams.net" modified="2020-09-24T20:13:52.479Z" agent="5.0 (Windows NT 10.0; Win64; x64) AppleWebKit/537.36 (KHTML, like Gecko) Chrome/85.0.4183.121 Safari/537.36" etag="jI0XnJ0Wqom3CR3sOSQ4" version="13.7.3" type="github">
  <diagram id="_1BRncdM06U7QQIxy_8K">
    <mxGraphModel dx="859" dy="824" grid="1" gridSize="10" guides="1" tooltips="1" connect="1" arrows="1" fold="1" page="1" pageScale="1" pageWidth="850" pageHeight="1100" math="0" shadow="0">
      <root>
        <mxCell id="0" />
        <mxCell id="1" parent="0" />
      </root>
    </mxGraphModel>
  </diagram>
</mxfile>
